<?xml version="1.0" ?><svg id="Layer_1" style="enable-background:new 0 0 50 50;" version="1.1" viewBox="0 0 50 50" xml:space="preserve" xmlns="http://www.w3.org/2000/svg" xmlns:xlink="http://www.w3.org/1999/xlink"><style type="text/css">
	.st0{fill:url(#SVGID_1_);}
</style><linearGradient gradientTransform="matrix(1 0 0 -1 0 50)" gradientUnits="userSpaceOnUse" id="SVGID_1_" x1="28.0350933" x2="21.962595" y1="43.5991936" y2="5.2589459"><stop offset="0" style="stop-color:#4763D3"/><stop offset="0.227027" style="stop-color:#9636BC"/><stop offset="0.4864865" style="stop-color:#D22D8C"/><stop offset="0.5775632" style="stop-color:#E04067"/><stop offset="0.665929" style="stop-color:#EC4F4A"/><stop offset="0.7162162" style="stop-color:#F0553F"/><stop offset="0.7527363" style="stop-color:#F26647"/><stop offset="0.8252611" style="stop-color:#F6935B"/><stop offset="0.9243243" style="stop-color:#FDD97B"/></linearGradient><path class="st0" d="M42.7179565,13.8074341c-0.0025024-0.435791-0.0540161-0.8595581-0.1452637-1.2687988  c-0.0723267-0.3244019-0.1704712-0.6387939-0.2932129-0.9411011c-0.1326904-0.3268433-0.2953491-0.6375732-0.4811401-0.9329224  c-0.1586914-0.2520752-0.3336792-0.4921875-0.5269775-0.7172241c-0.2175903-0.2532959-0.4534912-0.4901733-0.7098999-0.7041016  c-0.2263184-0.1888428-0.4696655-0.3564453-0.72229-0.5107422c-0.2993164-0.1827393-0.614563-0.34021-0.9451904-0.4688721  c-0.3081055-0.119812-0.6257935-0.220459-0.9559937-0.288208c-0.3895264-0.0799561-0.7927246-0.1219482-1.2055664-0.1219482  H36.645874h-1.2342529h-1.4140625H32.753418h-1.4140625h-1.2342529H28.69104h-1.2441406h-1.4140625h-1.2340088h-1.4140625H22.140625  h-1.4140625h-1.234375H18.078125h-1.2441406h-1.4140625h-1.2338867h-0.9174805  c-0.1765747,0-0.3504028,0.0114746-0.5231323,0.0265503c-2.8845825,0.2512817-5.1873169,2.5540161-5.4385986,5.4385986  c-0.0150757,0.1727295-0.0265503,0.3465576-0.0265503,0.5231323v0.9174805v1.2338867v1.4140625v1.2441406v1.4140625v1.234375  v1.4140625v1.2441406v1.4140625v1.2342529v1.4141235v1.2441406v1.4140625v1.2339478v1.4140625v1.2441406v1.4140625v1.2334595  v0.086853c0,0.4127197,0.0419922,0.8157959,0.1219482,1.2052612c0.067749,0.3301392,0.168335,0.6478271,0.288147,0.9559326  c0.1286621,0.3306274,0.2861328,0.6459351,0.4688721,0.9452515c0.1544189,0.2528687,0.3223267,0.49646,0.5113525,0.7229614  c0.2139893,0.2564087,0.4508667,0.4923706,0.7041626,0.7098999c0.2250977,0.1932983,0.4651489,0.3682251,0.7172852,0.5268555  c0.2953491,0.185791,0.6060791,0.3483887,0.9329834,0.4810791c0.3021851,0.1226807,0.6165161,0.2207642,0.9407959,0.2930908  c0.4092407,0.0912476,0.8330078,0.1428223,1.2687988,0.1452637c0.0114136,0.000061,0.0224609,0.001709,0.0339355,0.001709h1.2084961  h1.4140625h1.234375h1.4140625h1.2441406h1.4140625h1.234314h1.4140015h1.2437744h1.4140625h1.234375h1.4140625h1.2441406h1.4140625  h1.2333984h1.4140625h1.2441406h1.0302734c0.1364746,0,0.2700195-0.0114136,0.4042358-0.0204468  c2.9788208-0.2004395,5.3621826-2.5841675,5.5626221-5.5626221c0.0090332-0.1342163,0.0204468-0.2677612,0.0204468-0.4042358  v-1.0302734v-1.2441406v-1.4140625v-1.2333984v-1.4140625v-1.2441406v-1.4140625v-1.234375v-1.4140625v-1.2440186v-1.4140625  v-1.2340088v-1.4140625v-1.2441406v-1.4140625v-1.234375v-1.4140625v-1.2080078  C42.7197266,13.8302002,42.7180176,13.8190308,42.7179565,13.8074341z M41.480896,12.3961182  c0.1018066,0.3331909,0.1677856,0.6782837,0.1975098,1.0368042l-3.8616943,3.8616943  c-0.109314-0.3031616-0.2307129-0.5931396-0.3647461-0.8695068L41.480896,12.3961182z M40.5490723,10.6697388  c0.1911621,0.2297363,0.3602905,0.473999,0.5083618,0.7357788l-4.119812,4.119873  c-0.1658325-0.2504272-0.3443604-0.4865723-0.5355225-0.7086182L40.5490723,10.6697388z M37.4082031,30.2543945  c-0.0234375,1.4189453-0.2089844,2.5371094-0.5849609,3.519043c-0.7148438,1.8647461-2.0869141,3.090332-4.1972656,3.746582  c-1.1289063,0.3505859-2.3134766,0.4033203-3.3242188,0.4082031c-2.7480469,0.0141602-5.4980469,0.0180664-8.2431641,0.0048828  c-1.1484375-0.0058594-2.375-0.0581055-3.5625-0.3959961c-2.3535156-0.6694336-3.8154297-2.2084961-4.4707031-4.7045898  c-0.2802734-1.0703125-0.3173828-2.1787109-0.3193359-3.0239258v-0.6445313  c-0.0019531-2.7929688-0.0039063-5.5869141,0.015625-8.3798828c0.0107422-1.4990234,0.2363281-2.6865234,0.7089844-3.737793  c0.8046875-1.7866211,2.2001953-2.9277344,4.2685547-3.4873047c0.8505859-0.2304688,1.8095703-0.3398438,3.0175781-0.3447266  c1.5263672-0.0063477,3.0527344-0.0102539,4.5800781-0.0102539c1.3603516,0,2.7216797,0.0029297,4.0820313,0.0092773  c1.3779297,0.0068359,2.4140625,0.1347656,3.3583984,0.4150391c2.1083984,0.625,3.4892578,2.0043945,4.2216797,4.2163086  c0.2763672,0.8339844,0.4169922,1.7402344,0.4189453,2.6938477l0.0126953,2.465332  C37.4052734,25.6000977,37.4257813,29.1557617,37.4082031,30.2543945z M39.0953369,9.4763184  c0.2627563,0.1429443,0.5091553,0.3060913,0.7408447,0.4922485l-4.1414185,4.1414795  c-0.2220459-0.190979-0.4567871-0.3673706-0.7042847-0.5289917L39.0953369,9.4763184z M37.0298462,8.883606  c0.3671265,0.0221558,0.7203979,0.0844116,1.0620728,0.1820679l-4.010498,4.010437  c-0.2857056-0.1315308-0.5836182-0.2484131-0.8959961-0.3482056L37.0298462,8.883606z M34.4116211,8.8535156h1.2342529  l-3.588562,3.588562c-0.3416748-0.0648193-0.7050781-0.1127319-1.0853271-0.1489258L34.4116211,8.8535156z M31.753418,8.8535156  h1.2441406l-3.3671875,3.3671875c-0.0846558-0.0013428-0.1594849-0.006897-0.246582-0.0073242  c-0.3301392-0.0015259-0.6602173,0.0012207-0.9903564,0.0001221L31.753418,8.8535156z M29.1051025,8.8535156h1.2342529  L26.979248,12.213623c-0.411377-0.0007324-0.822998,0.0003662-1.234375,0.0001831L29.1051025,8.8535156z M26.4468994,8.8535156  H27.69104l-3.3603516,3.3604126c-0.4147339,0.0003662-0.8295898-0.0007324-1.2443237,0.0001831L26.4468994,8.8535156z   M23.7988281,8.8535156h1.2340088l-3.3606567,3.3607178c-0.3198242,0.0010986-0.6394043-0.0012207-0.9592896,0.0001221  c-0.098938,0.0004272-0.1867676,0.0061035-0.2827759,0.0078735L23.7988281,8.8535156z M21.140625,8.8535156h1.2441406  l-3.4597778,3.4597778c-0.5333252,0.0625-1.0233154,0.1549683-1.4874878,0.2804565  c-0.0189209,0.005127-0.0358276,0.0123291-0.0546875,0.0175781L21.140625,8.8535156z M11.4022827,9.2232056l-2.7522583,2.7522583  C9.1568604,10.7258911,10.1525879,9.7300415,11.4022827,9.2232056z M8.2802734,13.8417969  c0-0.0314331,0.008667-0.0604858,0.0092773-0.0917969l4.887207-4.887207  c0.031311-0.0006104,0.0603638-0.0092773,0.0917969-0.0092773h1.1513672l-6.1396484,6.1396484V13.8417969z M8.2802734,16.4072266  l7.5537109-7.5537109h1.2441406l-8.7978516,8.7978516V16.4072266z M8.2802734,19.0654297L18.4921875,8.8535156h1.234375  l-5.0974731,5.0974731c-0.4868164,0.3737793-0.9212036,0.7999268-1.289856,1.289856l-5.05896,5.05896V19.0654297z   M8.2802734,21.7138672l3.7999268-3.7999268c-0.1275635,0.4787598-0.2241821,0.9821777-0.2810669,1.5252075l-3.5188599,3.5188599  V21.7138672z M8.2802734,24.3720703l3.4411011-3.4411011c-0.0027466,0.4121094-0.0003662,0.8243408-0.0022583,1.2365112  l-3.4388428,3.4388428V24.3720703z M8.2802734,27.0203857l3.4361572-3.4362183  c-0.0010986,0.4155273-0.00177,0.8309326-0.0023193,1.24646l-3.4338379,3.4338989V27.0203857z M8.2802734,29.6786499  l3.4312134-3.4312744c-0.000061,0.4121094-0.0024414,0.8242188-0.0023193,1.2363281l-3.428894,3.428894V29.6786499z   M8.2802734,32.3266602l3.4262695-3.4262695c0.000061,0.0880737-0.0005493,0.1760864-0.0004883,0.2641602v0.6455078  c0.0002441,0.102417,0.0040894,0.2200317,0.0056152,0.3293457l-3.4313965,3.4313965V32.3266602z M8.2802734,34.9848633  l3.50354-3.50354c0.0343018,0.3483276,0.0904541,0.7072754,0.1626587,1.0709229l-3.6661987,3.6660767V34.9848633z   M8.4923706,38.6644287c-0.0975952-0.3416748-0.1599731-0.6949463-0.1820679-1.0620728l3.9348145-3.9347534  c0.1029663,0.3121338,0.2195435,0.6102905,0.3492432,0.8949585L8.4923706,38.6644287z M9.3956299,40.4095459  c-0.1864014-0.2318726-0.3496094-0.4785767-0.4926758-0.7416382l4.1860962-4.1860352  c0.1594849,0.2525024,0.3323975,0.4910889,0.5181885,0.7160034L9.3956299,40.4095459z M10.8328247,41.6305542  c-0.2617798-0.1480103-0.5061646-0.3170776-0.7359009-0.5082397l4.203186-4.2032471  c0.2194824,0.1962891,0.4526367,0.3778076,0.6989746,0.545166L10.8328247,41.6305542z M12.8601074,42.2512207  c-0.3584595-0.0296631-0.7034912-0.0957031-1.0365601-0.1973877l4.0722656-4.0723267  c0.2780151,0.1347046,0.5696411,0.2543335,0.8744507,0.3595581L12.8601074,42.2512207z M15.4770508,42.2924805h-1.2441406  l3.6437988-3.6437988c0.3583374,0.0751953,0.7150879,0.1344604,1.0698853,0.1742554L15.4770508,42.2924805z M18.1254883,42.2924805  h-1.234375l3.3748779-3.3748779c0.2650757,0.0083618,0.5288086,0.0141602,0.7867432,0.0155029  c0.1436768,0.0007324,0.2873535,0.0004883,0.4310303,0.0010986L18.1254883,42.2924805z M20.7836914,42.2924805h-1.2441406  l3.3547363-3.3547363c0.4136963,0.0009766,0.8272705,0.0029297,1.2409668,0.0031738L20.7836914,42.2924805z M23.4320068,42.2924805  h-1.2342529l3.3535156-3.3535156c0.4125366-0.0005493,0.8251953-0.0023804,1.237793-0.00354L23.4320068,42.2924805z   M26.0898438,42.2924805h-1.2437744l3.361084-3.361084c0.3668823-0.0015869,0.7335815-0.0012817,1.1004639-0.0031738  c0.0479736-0.0002441,0.1010132-0.0027466,0.1497192-0.0032349L26.0898438,42.2924805z M28.7382813,42.2924805h-1.234375  l3.4389648-3.4389648c0.4876099-0.0466309,0.9880371-0.1332397,1.4910278-0.2566528L28.7382813,42.2924805z M38.4351196,41.9735718  l2.9656982-2.9656982C40.8967896,40.3843994,39.8116455,41.4695435,38.4351196,41.9735718z M41.7197266,37.2749023  l-5.0175781,5.0175781h-1.2441406l6.2617188-6.2617188V37.2749023z M41.7197266,34.6166992l-7.6757813,7.6757813h-1.2333984  l8.9091797-8.9091797V34.6166992z M41.7197266,31.9692383L31.3964844,42.2924805h-1.2441406l4.6577148-4.6577148  c1.0197754-0.6092529,1.8240356-1.4145508,2.4087524-2.4087524l4.5009155-4.5009155V31.9692383z M41.7197266,29.3110352  l-3.609436,3.609436c0.1044922-0.4597168,0.1860962-0.9422607,0.2340088-1.4683838l3.3754272-3.3754272V29.3110352z   M41.7197266,26.6625977l-3.3082275,3.3082275c0.0026245-0.3220825,0.0036621-0.7493286,0.0033569-1.2473755l3.3048706-3.3048706  V26.6625977z M41.7197266,24.0045166l-3.3078613,3.3079224c-0.0013428-0.3964844-0.0029297-0.80896-0.0048828-1.229187  l3.3127441-3.3127441V24.0045166z M41.7197266,21.3564453l-3.3198242,3.3198242  c-0.0022583-0.4221802-0.0045166-0.8380127-0.0067749-1.2373657l3.3265991-3.3265991V21.3564453z M41.7197266,18.6982422  l-3.3341064,3.3341064l-0.0062866-1.2280884l3.3403931-3.3403931V18.6982422z M41.7197266,16.0498047l-3.4067383,3.4067383  c-0.0390625-0.364563-0.0952148-0.72229-0.1733398-1.0708008l3.5800781-3.5800781V16.0498047z M25.0166016,22.6572266  c-0.8896484,0.003418-1.7646484,0.3769531-2.4003906,1.0258789c-0.6494141,0.6616211-0.9990234,1.5351563-0.9853516,2.4589844  c0.0283203,1.8432617,1.5576172,3.3325195,3.4140625,3.3325195c0.0087891,0,0.0185547,0,0.0273438,0  c1.8994141-0.0151367,3.4345703-1.5297852,3.421875-3.3774414c-0.0136719-1.9316406-1.5341797-3.4399414-3.4648438-3.4399414  C25.0253906,22.6572266,25.0205078,22.6572266,25.0166016,22.6572266z M25.4423218,28.4348755l2.0214233-2.0214233  C27.328064,27.4437256,26.5040894,28.2660522,25.4423218,28.4348755z M27.3081055,25.1550903L24.15979,28.3034058  c-0.2851563-0.1121216-0.5427246-0.2763062-0.7631836-0.4810181l3.4215088-3.4215088  C27.0249634,24.6164551,27.192749,24.8696289,27.3081055,25.1550903z M25.9711304,23.8338013l-3.1559448,3.1560059  c-0.1115723-0.2676392-0.1795044-0.5576172-0.1843262-0.8633423c-0.0010376-0.0688477,0.0123291-0.1350708,0.0169678-0.2030029  l2.253479-2.253418c0.039978-0.0023193,0.0791016-0.0126343,0.1192017-0.0128174c0.0029297,0,0.0058594,0,0.0097656,0  C25.3673706,23.6572266,25.6834106,23.7211304,25.9711304,23.8338013z M35.2441406,19.4472656  c-0.3496094-2.0966797-1.71875-3.5805664-3.6611328-3.96875c-1.2539063-0.2509766-2.53125-0.2978516-3.7246094-0.3115234  c-1.5595703-0.0166016-3.1152344-0.0112305-4.6728516-0.0053711l-0.6015625,0.0014648  c-1.2294922,0.0019531-2.5,0.003418-3.7607422,0.2558594c-2.0292969,0.4067383-3.2949219,1.5288086-3.7617188,3.3349609  c-0.1972656,0.7646484-0.3095703,1.6430664-0.3457031,2.6850586c-0.0527344,1.5454102-0.0722656,5.7705078-0.0625,6.3881836  l0.0058594,0.4047852c0.015625,1.2299805,0.03125,2.5019531,0.3007813,3.7661133  c0.4306641,2.0117188,1.8378906,3.394043,3.7646484,3.6982422c0.9775391,0.1542969,1.9765625,0.2451172,2.9707031,0.2705078  c0.8037109,0.0200195,1.6074219,0.0258789,2.4111328,0.0258789c0.5859375,0,1.1728516-0.003418,1.7587891-0.0063477  l1.5566406-0.0048828c1.2880859,0.0039063,2.6210938,0.003418,3.9423828-0.2675781  c1.8398438-0.3769531,3.0625-1.3969727,3.6337891-3.0317383c0.3300781-0.9428711,0.3857422-1.9248047,0.4150391-2.8500977  c0.0458984-1.5029297,0.0644531-3.1123047,0.0566406-4.9194336c-0.0009766-0.3496094,0.0009766-0.6992188,0.0029297-1.0488281  C35.4824219,22.4208984,35.4912109,20.9287109,35.2441406,19.4472656z M34.4742432,23.2952881l-3.2298584,3.2298584  c0.0071411-0.0973511,0.0196533-0.1932373,0.0222168-0.291748c0.0079346-0.3085327-0.0158691-0.6152954-0.0546265-0.9199829  l3.2501221-3.2501221C34.4719238,22.4755859,34.475647,22.8862305,34.4742432,23.2952881z M34.258606,19.6184692  c0.0604858,0.3632813,0.1035156,0.7302246,0.135498,1.0987549l-3.4419556,3.4419556  c-0.0982666-0.2999268-0.2150879-0.593811-0.3574219-0.87677L34.258606,19.6184692z M28.7460938,22.3891602  c1.0019531,1.0224609,1.5566406,2.4145508,1.5205078,3.8188477c-0.0712891,2.7983398-2.390625,5.0644531-5.1757813,5.0644531  c-0.0097656,0-0.0195313,0-0.0283203,0c-2.9277344-0.0166016-5.2138672-2.3168945-5.2060547-5.2368164  c0.0087891-2.8847656,2.296875-5.1582031,5.2080078-5.1757813c0.0107422,0,0.0214844,0,0.03125,0  C26.4833984,20.8598633,27.7783203,21.4023438,28.7460938,22.3891602z M27.9888916,20.5825195l0.9320068-0.9320068  c0.0297241,0.3187256,0.1265259,0.6365356,0.3065796,0.9268799l-0.4899292,0.4899292  C28.4976807,20.8884277,28.2498779,20.7229004,27.9888916,20.5825195z M30.0562134,22.4069214  c-0.1725464-0.237854-0.3574829-0.4674072-0.5633545-0.6808472l0.4208984-0.4208984  c0.2796021,0.1917114,0.5909424,0.2927856,0.9046631,0.3395386L30.0562134,22.4069214z M33.4660645,17.7528076  c0.1813354,0.2351074,0.340332,0.4920654,0.467041,0.7771606l-0.6913452,0.6914063  c-0.045166-0.3179932-0.1442261-0.6323853-0.3324585-0.9118042L33.4660645,17.7528076z M31.9508667,16.6206055  c0.289917,0.1084595,0.553833,0.2587891,0.7985229,0.4348145l-0.5667725,0.5667725  c-0.2890625-0.1772461-0.6080322-0.2737427-0.9299927-0.3034058L31.9508667,16.6206055z M31.0878906,18.293457  c0.2890625,0,0.5898438,0.1357422,0.8271484,0.3730469c0.2363281,0.2373047,0.3710938,0.5385742,0.3701172,0.8266602  c-0.0029297,0.5878906-0.6025391,1.1914063-1.1894531,1.1962891c-0.3027344,0.0117188-0.5810547-0.1391602-0.8203125-0.378418  c-0.2402344-0.2402344-0.3828125-0.5493164-0.3808594-0.8261719C29.8994141,18.8959961,30.5,18.2944336,31.0859375,18.293457  C31.0869141,18.293457,31.0878906,18.293457,31.0878906,18.293457z M30.7939453,16.3634644l-3.7985229,3.7984009  c-0.328125-0.1065063-0.6668091-0.1818848-1.0125732-0.2315674l3.6939087-3.6937866  C30.0496826,16.2642822,30.4224854,16.3084717,30.7939453,16.3634644z M27.8466797,16.1669922  c0.1563721,0.001709,0.3168945,0.0065308,0.475708,0.0098267l-3.7081299,3.7080688  c-0.5410767,0.041687-1.0625,0.1516724-1.5568848,0.322876l4.0443726-4.0443726  C27.3500977,16.1650391,27.5984497,16.1643066,27.8466797,16.1669922z M15.9545288,19.3460083l2.9061279-2.906189  c0.0545654-0.0124512,0.1037598-0.0291748,0.1598511-0.0404053c0.428894-0.0858765,0.8596191-0.1335449,1.2928467-0.1680908  l-4.560791,4.5608521C15.7927856,20.2584229,15.8618164,19.7827148,15.9545288,19.3460083z M15.6960449,22.2627563  l6.0952759-6.0953369c0.2625122-0.0027466,0.5263062-0.0039063,0.7946167-0.0043335l0.4449463-0.0010986l-7.3543701,7.3543701  C15.6820679,23.0637207,15.6886597,22.6370239,15.6960449,22.2627563z M15.6621704,24.9447632l8.7863159-8.7863159  c0.3590698-0.0009766,0.7180786-0.0026855,1.0769043-0.0026855c0.0563354,0,0.112793,0.0007324,0.1691284,0.0007935  L15.6541138,26.1969604C15.6559448,25.8094482,15.6586914,25.3848877,15.6621704,24.9447632z M15.6591797,28.2197266  l-0.0058594-0.4082031c-0.0007324-0.0445557-0.0012207-0.1152954-0.0015869-0.1981201l3.5386353-3.5386353  c-0.1682739,0.4910278-0.2736206,1.0089111-0.3115234,1.5453491l-3.2095337,3.2093506  C15.6656494,28.6270752,15.6618042,28.4255981,15.6591797,28.2197266z M15.725647,30.1871948l3.2052002-3.2050781  c0.0506592,0.3486938,0.1256104,0.6880493,0.2300415,1.0140991l-3.3041382,3.3040161  C15.7972412,30.9309692,15.7522583,30.5604858,15.725647,30.1871948z M16.1321411,32.4389648l3.4447021-3.4446411  c0.1400757,0.2653198,0.3033447,0.5148315,0.4790649,0.7547607l-3.5031738,3.5032349  C16.3858032,33.0067139,16.2437744,32.7362061,16.1321411,32.4389648z M18.0111694,34.4521484  c-0.2841187-0.1210327-0.5444336-0.2762451-0.7794189-0.4647827l3.4782715-3.4783325  c0.2104492,0.2058105,0.4376221,0.3939209,0.6763916,0.5678711L18.0111694,34.4521484z M19.1365967,34.7406616l3.1298218-3.1298218  c0.2803955,0.1394653,0.5709229,0.2623291,0.8748169,0.3592529l-2.9065552,2.9065552  C19.866272,34.8421631,19.5006714,34.793457,19.1365967,34.7406616z M22.789856,34.9796753  c-0.3564453-0.0039063-0.7130737-0.0040283-1.0691528-0.0128784c-0.0510254-0.0012817-0.1021118-0.0072632-0.1531982-0.0089111  l2.7371216-2.7371216c0.246582,0.0299072,0.49646,0.050293,0.7520142,0.0516968c0.0117188,0,0.0224609,0,0.0341797,0  c0.1442871,0,0.2859497-0.0116577,0.4279175-0.0216675L22.789856,34.9796753z M25.430542,34.9874268  c-0.4122925,0.0018311-0.8248291,0.0030518-1.2376709,0.0032959l3.1582642-3.1582642  c1.571167-0.6292114,2.8326416-1.8903198,3.4674683-3.4674683l3.6516724-3.6516724  c0,0.067749-0.0007324,0.135437-0.0005493,0.203186c0.0015259,0.3530273,0.0012207,0.6925659,0.0007324,1.0310059  L25.430542,34.9874268z M27.4238281,34.9814453l-0.5750122,0.00177l7.6134644-7.6134644  c-0.0046997,0.4309082-0.0109863,0.8527222-0.0194702,1.2636108l-6.3464355,6.3464355  C27.8734741,34.9807739,27.6512451,34.9818726,27.4238281,34.9814453z M34.4008179,30.0894165  c-0.0180054,0.4523315-0.053772,0.9118042-0.1281738,1.3622437l-3.3156128,3.3156738  c-0.4647217,0.0838623-0.930542,0.1370239-1.401062,0.1669312L34.4008179,30.0894165z"/></svg>