<?xml version="1.0" ?><svg id="Layer_1" style="enable-background:new 0 0 50 50;" version="1.1" viewBox="0 0 50 50" xml:space="preserve" xmlns="http://www.w3.org/2000/svg" xmlns:xlink="http://www.w3.org/1999/xlink"><style type="text/css">
	.st0{fill:#0065A1;}
</style><path class="st0" d="M42.6697998,9.6871338c-0.1116333-0.3362427-0.2792358-0.644104-0.4976807-0.9163818  c-0.1841431-0.2295532-0.3952637-0.4364014-0.6392822-0.6048584c-0.2913818-0.2011719-0.6216431-0.3466797-0.9755859-0.4384766  c-0.2495728-0.0646973-0.5068359-0.1102295-0.7769775-0.1102295H39.434082h-1.4140625h-1.2442017h-1.4140625h-1.234314h-1.4140625  h-1.2441406h-1.4140625h-1.2338867h-1.4140625h-1.2441406h-1.4140625h-1.2340088h-1.4140625h-1.2441406H19.442688h-1.2341919  h-1.4140625H15.550293h-1.4140625h-1.2338867h-1.4140625h-1.0795898c-1.6782227,0-3.0439453,1.3383789-3.0439453,2.9838867  v1.1396484v1.4140625v1.2338867v1.4140625v1.2441406v1.4140625v1.2340698v1.4140625v1.2440796v1.4140625v1.2342529v1.4140625  v1.2441406v1.4140625v1.2338867v1.4140625v1.2441406v1.4140625v1.2339478v1.4140625v1.2441406v1.4140015v0.4106445  c0,0.2506714,0.0410156,0.4902954,0.1005859,0.7230835c0.0900879,0.3521729,0.2371216,0.6817017,0.4421387,0.9719849  c0.1699829,0.2407227,0.3813477,0.4475708,0.6141357,0.6299438c0.2736206,0.2142944,0.5825806,0.3809204,0.9210205,0.493103  c0.3052979,0.1011963,0.6264038,0.1687012,0.9660645,0.1687012h0.0991211h1.4140625h1.2441406h1.4140625h1.2338867h1.4140625  h1.2441406h1.4140625h1.2342529h1.4140625h1.2441406h1.4140625h1.2340088h1.4140625h1.2441406h1.4140625h1.2338867h1.4140625  h1.2441406h1.4140625h1.2338867h1.4140625h1.3271484c1.6826172,0,3.0512695-1.3398438,3.0512695-2.9868164v-1.3916016v-1.4140625  v-1.2338867v-1.4140625v-1.2441406v-1.4140625v-1.2338867v-1.4140625v-1.2441406v-1.4140625V25.444458v-1.4140625v-1.2441406  v-1.4140625v-1.2340088v-1.4140625v-1.2441406V16.065918v-1.2338867v-1.4140625v-1.2441406v-1.4140625v-0.1586914  C42.831543,10.2802734,42.7660522,9.9769287,42.6697998,9.6871338z M40.8056641,8.8930664  c0.2613525,0.1474609,0.4893188,0.3433228,0.6609497,0.5831909L30.7976074,20.1453857  c-0.52771,0.0229492-1.0185547,0.1017456-1.4714355,0.227356L40.8056641,8.8930664z M36.734375,28.4648438v8.5219727h-4.1083984  V29.487793c0-1.8178711,0-4.8608398-3.1567383-4.8608398c-3.5678711,0-3.5678711,3.4311523-3.5678711,4.7231445v7.6367188H21.793457  V21.5385742h3.902832v1.7475586l0.0688477,0.5h0.8017578l0.140625-0.2666016  c0.581543-1.1025391,2.0810547-2.3896484,4.3945313-2.3896484C35.7763672,21.1298828,36.734375,24.0620117,36.734375,28.4648438z   M26.9914551,28.013916l2.3792725-2.3792725c0.034668-0.0007935,0.0629883-0.0076904,0.0985107-0.0076904  c0.3897095,0,0.6919556,0.0804443,0.9541626,0.1991577l-3.5219727,3.5219727  C26.9014893,28.8399658,26.9367676,28.4083862,26.9914551,28.013916z M26.9013672,30.762207l4.260376-4.260376  c0.1483765,0.2585449,0.2571411,0.5597534,0.324707,0.9091797l-4.585083,4.585083V30.762207z M26.9013672,33.4101563  l4.7139282-4.7139282c0.0081787,0.2543945,0.0106812,0.5189819,0.0106812,0.7915649v0.4418945l-4.7246094,4.7246094V33.4101563z   M26.9013672,36.0683594l4.7246094-4.7246094v1.2341309l-4.7246094,4.7246704V36.0683594z M13.4746094,36.9868164V21.5385742  h4.1123047v15.4482422H13.4746094z M13.0673828,15.8256836c0-1.3579102,1.1054688-2.4628906,2.4643555-2.4628906  c1.3579102,0,2.4628906,1.1049805,2.4628906,2.4628906c0,1.3588867-1.1049805,2.4643555-2.4628906,2.4643555  C14.1728516,18.2900391,13.0673828,17.1845703,13.0673828,15.8256836z M15.5317383,19.2900391  c0.0772095,0,0.1495361-0.0178223,0.2254639-0.0228271l-1.2713623,1.2713623h-1.2441406l1.3839722-1.3839722  C14.9163208,19.2340088,15.2162476,19.2900391,15.5317383,19.2900391z M20.793457,32.7978516l-2.206543,2.206543v-1.2340088  l2.206543-2.206604V32.7978516z M20.793457,30.1496582l-2.206543,2.206604v-1.2440796l2.206543-2.206604V30.1496582z   M20.793457,27.4915161l-2.206543,2.206604v-1.2340698l2.206543-2.2064819V27.4915161z M20.793457,24.8435059l-2.206543,2.2064819  v-1.2441406l2.206543-2.2064819V24.8435059z M18.5869141,24.3917847v-1.2340698l2.206543-2.206543v1.2341309L18.5869141,24.3917847z   M20.793457,34.2119141v1.2441406l-2.206543,2.206543V36.418457L20.793457,34.2119141z M38.434021,8.6171875h1.2334595  L26.6962891,21.588562v-1.0499878h-0.1837769L38.434021,8.6171875z M35.7758179,8.6171875h1.2441406L25.0983887,20.5385742  H23.854248L35.7758179,8.6171875z M33.1274414,8.6171875h1.234314L22.4401855,20.5385742h-1.2341309L33.1274414,8.6171875z   M30.4692383,8.6171875h1.2441406L18.5869141,21.7436523v-1.2050781h-0.0390625L30.4692383,8.6171875z M27.8212891,8.6171875  h1.2338867L17.1337891,20.5385742h-1.2338867L27.8212891,8.6171875z M25.1630859,8.6171875h1.2441406l-7.4355469,7.4355469  c0.0050659-0.0764771,0.0229492-0.149292,0.0229492-0.2270508c0-0.3150635-0.0559692-0.614624-0.1351318-0.9049072  L25.1630859,8.6171875z M22.5150146,8.6171875h1.2340088l-5.3208618,5.3208618  c-0.1608887-0.2460327-0.355957-0.4644165-0.5723267-0.6618042L22.5150146,8.6171875z M19.8567505,8.6171875h1.2441406  l-4.0900879,4.0900269c-0.2975464-0.1417847-0.616272-0.2393188-0.9529419-0.2911987L19.8567505,8.6171875z M8.3647461,10.6010742  c0-1.09375,0.9169922-1.9838867,2.0439453-1.9838867h0.0795898l-2.1235352,2.1235352V10.6010742z M8.3647461,12.1547852  l3.5375977-3.5375977h1.2338867l-4.7714844,4.7714844V12.1547852z M8.3647461,14.8027344l6.1855469-6.1855469h1.2441406  L8.3647461,16.046875V14.8027344z M8.3647461,17.4609375l8.84375-8.84375h1.2341919l-3.9099121,3.9099121  c-1.1033936,0.335144-1.9666138,1.1981812-2.3015137,2.3013916l-3.8665161,3.8665161V17.4609375z M8.3647461,20.1090698  l3.7559814-3.7559814c0.052002,0.3365479,0.1497192,0.6552124,0.2915649,0.9526367l-4.0475464,4.0474854V20.1090698z   M8.3647461,22.7672119l4.6165771-4.6165161c0.1974487,0.2163696,0.4157715,0.411438,0.6618042,0.5723877l-5.2783813,5.2783813  V22.7672119z M8.3647461,25.4155273l4.1098633-4.1098633v1.2441406L8.3647461,26.659668V25.4155273z M8.3647461,28.0737305  l4.1098633-4.1098633v1.2338867l-4.1098633,4.1098633V28.0737305z M8.3647461,30.7216797l4.1098633-4.1098633v1.2441406  l-4.1098633,4.1098633V30.7216797z M8.3647461,33.3798828l4.1098633-4.1098633v1.2340088l-4.1098633,4.1098022V33.3798828z   M8.3647461,36.0278931l4.1098633-4.1098022v1.2441406l-4.1098633,4.1098022V36.0278931z M8.3647461,39.9204102v-1.234314  l4.1098633-4.1098022v1.2341919L8.3647461,39.9204102z M9.2294312,41.7138672  c-0.2457275-0.1698608-0.4459839-0.3928833-0.5947266-0.649353l3.8399048-3.8399658v0.7622681h0.4818115L9.2294312,41.7138672z   M11.5078125,42.0834961h-1.0991211c-0.0420532,0-0.0813599-0.0096436-0.1227417-0.012085l4.0845337-4.0845947h1.2340088  L11.5078125,42.0834961z M14.1660156,42.0834961H12.921875l4.0966797-4.0966797h1.2441406L14.1660156,42.0834961z   M16.8139648,42.0834961h-1.2338867l5.2133789-5.2133789v1.1166992h0.1171875L16.8139648,42.0834961z M19.472168,42.0834961  h-1.2441406l4.0966797-4.0966797h1.2441406L19.472168,42.0834961z M22.1204834,42.0834961h-1.2342529l4.0966797-4.0966797h1.2341919  L22.1204834,42.0834961z M24.7786865,42.0834961h-1.2441406l8.0914307-8.0915527v1.2441406L24.7786865,42.0834961z   M27.4267578,42.0834961H26.192749l5.4332275-5.4333496v1.2341309L27.4267578,42.0834961z M30.0849609,42.0834961h-1.2441406  L32.9375,37.9868164h1.2441406L30.0849609,42.0834961z M32.7329102,42.0834961h-1.2338867l4.0966797-4.0966797h1.2338867  L32.7329102,42.0834961z M41.831543,40.0966797c0,1.0957031-0.9204102,1.9868164-2.0512695,1.9868164H39.453125l2.378418-2.378418  V40.0966797z M41.831543,38.2910156l-3.7924805,3.7924805h-1.2338867l5.0263672-5.0263672V38.2910156z M41.831543,35.6430664  l-6.4404297,6.4404297h-1.2441406l7.6845703-7.6845703V35.6430664z M41.831543,32.9848633l-4.097168,4.097168v-1.2338867  l4.097168-4.097168V32.9848633z M41.831543,30.3369141l-4.097168,4.097168v-1.2441406l4.097168-4.097168V30.3369141z   M41.831543,27.6787109l-4.097168,4.097168V30.541687l4.097168-4.097229V27.6787109z M41.831543,25.0303955l-4.097168,4.097229  v-0.6627808c0-0.1912231-0.0037842-0.3825073-0.0076294-0.5737305l4.1047974-4.1048584V25.0303955z M41.831543,22.3721924  l-4.1751709,4.1752319c-0.0321655-0.3724976-0.0730591-0.7414551-0.1333008-1.100769l4.3084717-4.3084717V22.3721924z   M41.831543,19.7241211l-4.5742798,4.5742798c-0.0925903-0.3163452-0.1966553-0.6255493-0.3261108-0.9180298l4.9003906-4.9003906  V19.7241211z M41.831543,17.065918l-5.409668,5.409668c-0.1640015-0.2419434-0.3456421-0.4711304-0.5514526-0.6824341  l5.9611206-5.9611206V17.065918z M41.831543,14.4179688l-6.734314,6.734314  c-0.2455444-0.1638794-0.5177002-0.3070068-0.8096313-0.4345093l7.5439453-7.5439453V14.4179688z M41.831543,11.7597656  l-8.604187,8.604187c-0.3292236-0.078125-0.6756592-0.1422729-1.0536499-0.180542l9.6506958-9.6508179  c0.0008545,0.0232544,0.0071411,0.0450439,0.0071411,0.0684814V11.7597656z"/></svg>