<?xml version="1.0" ?><svg id="Layer_1" style="enable-background:new 0 0 50 50;" version="1.1" viewBox="0 0 50 50" xml:space="preserve" xmlns="http://www.w3.org/2000/svg" xmlns:xlink="http://www.w3.org/1999/xlink"><style type="text/css">
	.st0{fill:#304D8C;}
</style><path class="st0" d="M43.1052246,13.8152466c-0.0024414-0.435791-0.0540161-0.8595581-0.1452637-1.2687988  c-0.0722656-0.3241577-0.1704102-0.6383667-0.2929688-0.9404907c-0.1326904-0.3269653-0.2952881-0.6376343-0.4810791-0.9329834  c-0.1586304-0.2521362-0.3335571-0.4922485-0.5268555-0.7172852c-0.2175293-0.2532959-0.4535522-0.4901733-0.7098999-0.7041626  c-0.2265625-0.1889648-0.4700928-0.3569336-0.7230225-0.5113525c-0.2993164-0.1827393-0.614563-0.34021-0.9452515-0.468811  c-0.3081055-0.119812-0.6258545-0.2203369-0.9560547-0.2880859c-0.3894653-0.079895-0.7924805-0.1219482-1.2052002-0.1219482  h-0.0869141h-1.2338867h-1.4140625h-1.2437134h-1.4140625h-1.234314h-1.4140625h-1.2441406h-1.4140625h-1.2342529h-1.4140625  h-1.2440796h-1.4140625H19.880188h-1.4140625h-1.2441406h-1.4140625h-1.2341919H13.65625  c-0.1765747,0-0.3503418,0.0114746-0.5230713,0.0264893c-2.8845215,0.2512817-5.1869507,2.553772-5.4382324,5.4382324  c-0.0150146,0.1727295-0.0264893,0.3464966-0.0264893,0.5230713v0.9174805v1.2340698v1.4140625v1.2441406v1.4140015v1.2341309  v1.4140625V23.96521v1.4140625v1.2340088v1.4140625v1.2441406v1.4140625v1.2339478v1.4140625v1.2440796v1.4140625v1.2338867  v0.0869179c0,0.4127159,0.0419922,0.8158531,0.1218872,1.2052574c0.067749,0.3302612,0.1682129,0.6479492,0.2880859,0.9560547  c0.1286011,0.3306885,0.2860718,0.6459961,0.46875,0.9453125c0.1544189,0.2529297,0.3222656,0.496582,0.5112915,0.7230835  c0.2139282,0.2564697,0.4508667,0.4923706,0.7041016,0.7099609c0.2250366,0.1932983,0.4650879,0.3682251,0.7172241,0.5269165  c0.2953491,0.185791,0.6060791,0.3483887,0.9329834,0.4810791c0.3022461,0.1226807,0.6164551,0.2207642,0.9407349,0.2930908  c0.4092407,0.0912476,0.8330688,0.1428833,1.2687988,0.1453247c0.0114746,0.000061,0.0224609,0.001709,0.0339355,0.001709h1.2084351  h1.4140625h1.2339478h1.4140625h1.2441406h1.4140625h1.2339478h1.4141235h1.2441406h1.4140625h1.2341309h1.4140625h1.2441406  h1.4140015h1.2340698h1.4140625h1.2441406h1.0297852c0.1365967,0,0.2703857-0.0114746,0.4047852-0.0205078  c2.9779053-0.2006836,5.361145-2.5837402,5.5620117-5.5620117c0.0090942-0.1345215,0.0205078-0.2684937,0.0205078-0.4052696  v-1.0293007v-1.2441406V33.625v-1.2341919v-1.4140625V29.732605v-1.4140625v-1.2337036v-1.4140625v-1.2441406v-1.4140625v-1.2342529  v-1.4140625v-1.2441406v-1.4140625v-1.234314v-1.4140625v-1.2085571  C43.1069336,13.8377075,43.1052856,13.8266602,43.1052246,13.8152466z M41.8684082,12.404541  c0.1016235,0.3330078,0.1676025,0.6778564,0.1972656,1.0361938l-4.3848877,4.3849487  c0.0007324-0.0291748,0.0111694-0.0497437,0.0106201-0.0800781c-0.0065918-0.3882446,0.0029297-0.7767944,0.0010986-1.1651611  L41.8684082,12.404541z M33.9858398,25.1054688c0.777832,0.0058594,1.5581055,0.0126953,2.3349609-0.0224609  c0.043457-0.0019531,0.081543-0.0024414,0.1137695-0.0024414c0.0712891,0.0004883,0.1166992,0.0029297,0.137207-0.0019531  c0.0004883,0.0463867-0.0053711,0.1342773-0.0375977,0.2905273c-0.2207031,1.0678711-0.3989258,2.128418-0.5981445,3.3916016  c-0.0356445,0.2255859-0.043457,0.2358398-0.2753906,0.2260742c-0.4379883-0.0102539-0.8759766-0.0063477-1.3149414-0.0024414  c-0.5532227,0.0058594-1.1079102,0.0107422-1.6611328-0.0146484c-0.2988281-0.0146484-0.7382813,0.0048828-1.0556641,0.3095703  c-0.3203125,0.3081055-0.3549805,0.7583008-0.3535156,1.0703125c0.0151367,2.8691406,0.0117188,5.7382813,0.0083008,8.6074219  l-0.0029297,2.6025391c-0.0063477,0.4291992-0.0703125,0.4960938-0.0732422,0.4985352  c-0.0009766,0.0009766-0.0742188,0.0615234-0.4741211,0.0571289l-3.0585938,0.0136719c-0.0004883,0-0.0009766,0-0.0014648,0  c-0.1938477,0-0.3378906-0.0336914-0.3945313-0.0917969c-0.0512695-0.0527344-0.0771484-0.1704102-0.0727539-0.3320313  c0.0341797-1.3374023,0.0273438-2.6762695,0.0209961-4.0146484l-0.0053711-2.1074219h-0.0039063l-0.0024414-1.1152344  c-0.0043945-1.3530273-0.0087891-2.7060547,0.0146484-4.0585938c0.0058594-0.3583984-0.0288086-0.8095703-0.3544922-1.125  c-0.324707-0.3139648-0.7685547-0.3276367-1.0791016-0.3154297c-0.5776367,0.0292969-1.1567383,0.0224609-1.7338867,0.0170898  c-0.4125977-0.0043945-0.8256836-0.0073242-1.2373047-0.0009766c-0.0083008,0.0004883-0.015625,0.0004883-0.0234375,0.0004883  c-0.0532227,0.0004883-0.0874023-0.0024414-0.1025391-0.0014648c-0.0053711-0.0244141-0.0112305-0.0688477-0.0102539-0.1420898  c0.0131836-1.1938477,0.0161133-2.3886719-0.003418-3.5830078c-0.0014648-0.0883789,0.0073242-0.137207,0.0039063-0.1503906  c0.0239258-0.0063477,0.0756836-0.0234375,0.1870117-0.0146484c0.519043,0.0097656,1.0380859,0.0078125,1.5566406,0.0053711  c0.5249023-0.0039063,1.0498047-0.0058594,1.5751953,0.0058594c0.40625,0.0073242,0.684082-0.0893555,0.894043-0.2963867  c0.2099609-0.2075195,0.3105469-0.5009766,0.3076172-0.8955078l-0.0053711-0.6411133  c-0.0097656-1.1225586-0.0195313-2.2832031,0.0200195-3.4174805c0.0664063-1.894043,0.7050781-3.3388672,1.9521484-4.4169893  c0.8212891-0.7104521,1.8520508-1.0966825,3.3427734-1.2524443c0.9892578-0.1035156,1.9707031-0.0126953,3.0092773,0.0810547  c0.3237305,0.0297852,0.6469727,0.059082,0.9702148,0.0825195c0.1699219,0.0126953,0.2006836,0.0146484,0.1953125,0.2612305  c-0.0234375,1.050293-0.0205078,2.1020508-0.0029297,3.152832c0.0019531,0.1000977-0.0092773,0.1503906-0.0058594,0.1606445  c-0.0205078,0.0068359-0.0761719,0.0214844-0.1914063,0.0224609c-0.2504883,0.0029297-0.5068359-0.0019531-0.7607422-0.0068359  c-0.7270508-0.0131836-1.4770508-0.0268555-2.2368164,0.1206055c-1.4135742,0.2749023-2.1274414,1.0708008-2.1821289,2.4326172  c-0.0288086,0.7001953-0.0244141,1.4013672-0.0200195,2.1030273c0.0029297,0.4448242,0.0058594,0.8901367,0,1.3349609  c-0.0043945,0.3720703,0.0961914,0.6635742,0.300293,0.8671875c0.3144531,0.3144531,0.7719727,0.3081055,0.9233398,0.3066406  C33.0073242,25.097168,33.4960938,25.1010742,33.9858398,25.1054688z M32.2753906,30.3447266  c-0.0014648-0.2773438,0.0458984-0.34375,0.0454102-0.34375C32.3232422,30,32.3881836,29.9599609,32.6401367,29.96875  c0.2842407,0.0128784,0.5695801,0.0064087,0.8544922,0.0078125l-1.2184448,1.2184448  C32.2750244,30.9116211,32.2768555,30.6281128,32.2753906,30.3447266z M32.2775879,32.607666l2.6222534-2.6222534  c0.2459106-0.0008545,0.4920654-0.0047607,0.7373657,0.0014038c0.2545166-0.0022583,0.4622192-0.0628662,0.6467285-0.1513672  l-4.005188,4.005127C32.2782593,33.4296265,32.2785034,33.0186157,32.2775879,32.607666z M26.2020264,22.7642822  c0.0012817,0.1715088,0.0010986,0.3465576,0.0025635,0.5164795l0.0053711,0.6396484  c0.0003052,0.0321655-0.0015869,0.0505371-0.0029297,0.0732422l-0.1087646,0.1087646  c-0.0217896,0.0012207-0.0400391,0.0032959-0.0689697,0.0025635c-0.3875732-0.0081787-0.7755127-0.0054932-1.1636963-0.0042725  L26.2020264,22.7642822z M32.3134766,20.5327148c0.0361328-0.8994141,0.4086914-1.3037109,1.3740234-1.4916992  c0.0479736-0.0093384,0.0974121-0.0072632,0.1455078-0.0151367l-1.5196533,1.5196533  C32.3135376,20.5412598,32.3132935,20.5369873,32.3134766,20.5327148z M32.2944336,23.2120972  c-0.0004883-0.2077637,0.0013428-0.4156494,0-0.62323c-0.0013428-0.2055664,0.0061035-0.4105835,0.0056763-0.6160278  l3.034729-3.034729c0.1273193,0.0014038,0.2502441-0.00177,0.3800049,0.0003662  c0.2626953,0.0053711,0.5239258,0.0102539,0.7890625,0.0073242c0.0257568-0.0002441,0.0424805-0.0095215,0.0673828-0.0106201  L32.2944336,23.2120972z M40.9368286,10.6779175c0.1912231,0.2297363,0.3602295,0.4741211,0.5082397,0.7359009l-3.7512207,3.7512207  c0.0025024-0.1777344-0.00354-0.3554077,0.0004883-0.5332031c0.0048828-0.2313843-0.0419312-0.4249268-0.112854-0.5985718  L40.9368286,10.6779175z M39.4823608,9.4839478c0.2631226,0.1430664,0.5097656,0.3063965,0.7416382,0.4927368l-3.4282227,3.4282227  c-0.0756226-0.0169678-0.1401367-0.0472412-0.2244873-0.0533447c-0.2936401-0.0212402-0.5877686-0.0484619-0.8814087-0.0751343  L39.4823608,9.4839478z M37.416748,8.8913574c0.3671265,0.0220947,0.720459,0.0844116,1.0621338,0.1820068l-4.100647,4.100647  c-0.40271-0.024353-0.8079834-0.038208-1.2163086-0.027832L37.416748,8.8913574z M34.7988281,8.8613281h1.2338867  l-4.4633789,4.4633789c-0.6791992,0.1245728-1.2721558,0.3129883-1.7987671,0.5648804L34.7988281,8.8613281z M11.789917,9.2310791  l-2.751709,2.751709C9.5450439,10.7333984,10.5405273,9.737915,11.789917,9.2310791z M8.668457,13.8491211  c0-0.0314331,0.008667-0.0604858,0.0092773-0.0917969l4.8867188-4.8867188  c0.031311-0.0006104,0.0603638-0.0092773,0.0917969-0.0092773h1.1516113L8.668457,15.0006714V13.8491211z M8.668457,16.4147339  l7.5535278-7.5534058h1.2441406L8.668457,17.6588745V16.4147339z M8.668457,19.072937L18.880188,8.8613281h1.2337646  L8.668457,20.3070068V19.072937z M8.668457,21.7210693L21.5280151,8.8613281h1.2441406L8.668457,22.96521V21.7210693z   M8.668457,24.3792725L24.1861572,8.8613281h1.2342529L8.668457,25.6132813V24.3792725z M8.668457,27.0273438L26.8344727,8.8613281  h1.2441406L8.668457,28.2714844V27.0273438z M8.668457,29.6855469L29.4926758,8.8613281h1.2342529L8.668457,30.9194946V29.6855469z   M8.668457,32.3335571l23.4725342-23.472229h1.2437744L8.668457,33.5776367V32.3335571z M8.668457,34.9916992l18.2877197-18.2877197  c-0.2728882,0.555542-0.4683838,1.1618652-0.5878906,1.8217773L8.668457,36.2255859V34.9916992z M8.8804932,38.6717529  c-0.0975952-0.3416748-0.1599121-0.6950073-0.1820068-1.0621338l17.522522-17.522522  c-0.012146,0.4213867-0.0193481,0.84375-0.0214844,1.265625l-2.742981,2.742981  c-0.1871948-0.0009766-0.3737183,0.0019531-0.5610352-0.0019531c-0.1450195,0.0004883-0.6000977-0.0117188-0.9116211,0.2988281  c-0.2070313,0.206543-0.3046875,0.4951172-0.2983398,0.8828125c0.0032349,0.1968384-0.0015259,0.3938599,0.0005493,0.5907593  L8.8804932,38.6717529z M9.7836304,40.4170532c-0.1862793-0.2319336-0.3496094-0.4786377-0.4926758-0.7416992L21.6875,27.2788086  c-0.0006714,0.4111328,0.0050659,0.8222046,0.0011597,1.2332153L9.7836304,40.4170532z M11.2206421,41.6382446  c-0.2617798-0.1480103-0.5061035-0.3170776-0.7358398-0.5083008l11.4745483-11.4745483  c0.0108032,0.0119629,0.0140381,0.0299683,0.0255127,0.0413818c0.2026367,0.2011719,0.4814453,0.2788086,0.859375,0.2880859  c0.0098877-0.0001831,0.0198975,0.0001831,0.0297852,0L11.2206421,41.6382446z M13.2478027,42.2589722  c-0.3584595-0.0296631-0.7034302-0.0955811-1.036499-0.1973267l12.078186-12.078186  c0.4158936,0.0038452,0.8314209,0.0004883,1.2462158-0.0125732L13.2478027,42.2589722z M15.8646851,42.300293h-1.2441406  l11.6083374-11.6085205c-0.0059204,0.4160767-0.0025635,0.8323975-0.0044556,1.2485962L15.8646851,42.300293z M18.5126953,42.300293  h-1.2339478l8.9405518-8.9406738c0.0006104,0.3706055-0.005188,0.7410278-0.0039673,1.1115723l0.0004883,0.1259766  L18.5126953,42.300293z M21.1708984,42.300293h-1.2441406l6.2941284-6.2941284l0.0045166,1.239624L21.1708984,42.300293z   M23.8189697,42.300293h-1.2340088l3.6443481-3.6443481c0.0012817,0.411438,0.0015869,0.8228149-0.0001831,1.2342529  L23.8189697,42.300293z M25.2330322,42.300293l0.9776001-0.9776001c-0.0024414,0.1190186-0.0015259,0.2380371-0.0045776,0.3569946  c-0.0058594,0.2331543,0.0283203,0.4384155,0.09375,0.6206055H25.2330322z M38.8230591,41.9811401l2.9646606-2.9646606  C41.2835693,40.3924561,40.1989136,41.4770508,38.8230591,41.9811401z M42.1069336,37.2832031l-5.0170898,5.0170898h-1.2441406  l6.2612305-6.2612305V37.2832031z M42.1069336,34.625l-7.675293,7.675293h-1.2340698l8.9093628-8.9094849V34.625z   M42.1069336,31.9767456l-9.8384399,9.838562c0.0056763-0.0823364,0.0111084-0.164856,0.0122681-0.2479248l0.0011597-1.0095825  l9.8250122-9.8251953V31.9767456z M42.1069336,29.3185425l-9.8234253,9.8235474l0.0001831-0.1835938  c0.0004272-0.3499146-0.0014038-0.699646-0.0010376-1.0495605l9.8242798-9.8241577V29.3185425z M42.1069336,26.6707764  l-9.8256226,9.8254395c0.0002441-0.4143066-0.0012207-0.8286133-0.0012207-1.2429199l9.8268433-9.8266602V26.6707764z   M42.1069336,24.0125732l-5.3115234,5.3114624c0.0557861-0.1209106,0.1033325-0.2510986,0.1279297-0.4065552  c0.0631714-0.4003906,0.1242065-0.7750854,0.1850586-1.140625l4.9985352-4.9985352V24.0125732z M42.1069336,21.3642578  l-4.6885376,4.6885376c0.0314331-0.1605225,0.0621338-0.3215942,0.0952759-0.4815063  c0.057373-0.2780151,0.0921021-0.5834351-0.0010376-0.8568726l4.5942993-4.5942993V21.3642578z M42.1069336,18.7060547  l-5.4008179,5.4008179c-0.1512451-0.0220337-0.3012085-0.0282593-0.4297485-0.0228882  c-0.2663574,0.0119629-0.5331421,0.0144653-0.7998657,0.0183105l6.6304321-6.6305542V18.7060547z M42.1069336,16.0576782  l-8.0479126,8.0480347c-0.0216064-0.0001831-0.0432739-0.000061-0.0648804-0.0002441  c-0.3927612-0.0026855-0.7852173-0.0030518-1.1778564-0.0011597l9.2906494-9.2907715V16.0576782z"/></svg>